<svg xmlns="http://www.w3.org/2000/svg" xmlns:xlink="http://www.w3.org/1999/xlink" version="1.1" x="0px" y="0px" viewBox="0 0 100 125" enable-background="new 0 0 100 100" xml:space="preserve"><path d="M51.227,33.262c-0.828,0-1.5,0.672-1.5,1.5v2.5c0,0.828,0.671,1.5,1.5,1.5c0.829,0,1.5-0.672,1.5-1.5v-2.5  C52.727,33.934,52.056,33.262,51.227,33.262z M51.227,40.986c-0.828,0-1.5,0.672-1.5,1.5v2.5c0,0.828,0.671,1.5,1.5,1.5  c0.829,0,1.5-0.672,1.5-1.5v-2.5C52.727,41.658,52.056,40.986,51.227,40.986z M51.227,48.712c-0.828,0-1.5,0.672-1.5,1.5v2.5  c0,0.828,0.671,1.5,1.5,1.5c0.829,0,1.5-0.672,1.5-1.5v-2.5C52.727,49.384,52.056,48.712,51.227,48.712z M51.227,56.437  c-0.828,0-1.5,0.672-1.5,1.5v2.5c0,0.828,0.671,1.5,1.5,1.5c0.829,0,1.5-0.672,1.5-1.5v-2.5  C52.727,57.108,52.056,56.437,51.227,56.437z M51.227,64.162c-0.828,0-1.5,0.672-1.5,1.5v2.5c0,0.828,0.671,1.5,1.5,1.5  c0.829,0,1.5-0.672,1.5-1.5v-2.5C52.727,64.834,52.056,64.162,51.227,64.162z M51.227,71.887c-0.828,0-1.5,0.672-1.5,1.5v2.5  c0,0.828,0.671,1.5,1.5,1.5c0.829,0,1.5-0.672,1.5-1.5v-2.5C52.727,72.559,52.056,71.887,51.227,71.887z M44.97,25.252  c-1.933,2.284-4.044,3.38-6.279,4.541c-2.066,1.073-4.203,2.184-6.105,4.243c-3.383,3.664-2.05,9.331-0.506,15.893  c1.501,6.38,3.203,13.61,1.728,21.511c-0.001,0.007,0,0.014-0.001,0.021c-0.362,1.256-0.68,2.635-0.917,4.21  c-0.123,0.818,0.441,1.583,1.26,1.706c0.076,0.012,0.151,0.017,0.225,0.017c0.729,0,1.37-0.533,1.481-1.277  c0.557-3.701,1.622-6.298,2.651-8.81c1.865-4.55,3.794-9.254,2.447-19.82c-0.306-2.4-1.007-5.203-1.877-7.496  c-0.293-0.775-1.159-1.164-1.935-0.87c-0.774,0.294-1.164,1.16-0.87,1.935c0.61,1.609,1.379,4.244,1.707,6.811  c0.885,6.947,0.323,10.948-0.748,14.324c-0.326-4.742-1.333-9.131-2.231-12.947c-1.404-5.965-2.512-10.677-0.21-13.17  c1.546-1.675,3.362-2.617,5.284-3.616c2.283-1.186,4.871-2.529,7.186-5.266c0.535-0.632,0.457-1.578-0.176-2.113  C46.451,24.539,45.505,24.62,44.97,25.252z M69.869,34.036c-1.902-2.06-4.039-3.17-6.105-4.243  c-2.234-1.161-4.346-2.257-6.279-4.541c-0.535-0.632-1.481-0.713-2.113-0.176c-0.633,0.535-0.711,1.481-0.176,2.113  c2.314,2.736,4.902,4.08,7.186,5.266c1.922,0.999,3.738,1.941,5.284,3.616c2.302,2.493,1.193,7.205-0.21,13.17  c-0.896,3.807-1.916,8.175-2.247,12.9c-1.062-3.365-1.614-7.362-0.733-14.277c0.328-2.566,1.097-5.201,1.707-6.811  c0.294-0.774-0.096-1.641-0.87-1.935c-0.774-0.291-1.641,0.096-1.935,0.87c-0.87,2.293-1.572,5.096-1.877,7.496  c-1.348,10.566,0.582,15.271,2.447,19.82c1.029,2.512,2.094,5.108,2.65,8.81c0.112,0.744,0.752,1.277,1.482,1.277  c0.074,0,0.148-0.005,0.225-0.017c0.819-0.123,1.383-0.888,1.26-1.706c-0.236-1.575-0.553-2.952-0.915-4.208  c-0.001-0.008-0.001-0.015-0.002-0.022c-1.476-7.9,0.227-15.131,1.728-21.511C71.919,43.367,73.252,37.7,69.869,34.036z"/></svg>