<svg xmlns="http://www.w3.org/2000/svg" xmlns:xlink="http://www.w3.org/1999/xlink" version="1.1" x="0px" y="0px" viewBox="0 0 100 125" enable-background="new 0 0 100 100" xml:space="preserve"><g><path d="M83.739,5.021H16.261c-6.203,0-11.249,5.046-11.249,11.25v67.48C5.012,89.952,10.058,95,16.261,95h67.479   c6.203,0,11.25-5.048,11.25-11.249v-67.48C94.989,10.068,89.942,5.021,83.739,5.021z M89.954,83.751   c0,3.426-2.789,6.213-6.215,6.213H16.26c-3.427,0-6.213-2.787-6.213-6.213v-67.48c0-3.426,2.786-6.214,6.213-6.214h67.479   c3.426,0,6.215,2.788,6.215,6.214V83.751z"/><circle cx="30.905" cy="30.916" r="5.848"/><circle cx="69.093" cy="30.916" r="5.848"/><circle cx="30.905" cy="50.011" r="5.848"/><circle cx="69.093" cy="50.011" r="5.848"/><circle cx="30.905" cy="69.105" r="5.848"/><circle cx="69.093" cy="69.105" r="5.848"/></g></svg>