<svg xmlns="http://www.w3.org/2000/svg" xmlns:xlink="http://www.w3.org/1999/xlink" version="1.1" x="0px" y="0px" viewBox="0 0 100 125" style="enable-background:new 0 0 100 100;" xml:space="preserve"><path d="M72.0913086,24.2597656c-3.8139648,0.4580078-7.7138672-0.0532227-9.7006836-0.4003906  c-1.3666992-0.2387695-2.5078125-1.1850586-2.9785156-2.4697266c-0.2148438-0.5854492-0.3974609-1.2529297-0.5424805-1.9833984  c-0.1171875-0.5922852-0.5205078-0.8964844-0.7504883-1.0253906c-0.4272461-0.2392578-0.9394531-0.2768555-1.4086914-0.1040039  C54.340332,19.15625,51.6621094,19.6020508,48.75,19.6020508s-5.590332-0.4458008-7.9614258-1.3256836  c-0.4667969-0.1733398-0.980957-0.1352539-1.4077148,0.1044922c-0.2299805,0.1289062-0.6333008,0.4331055-0.75,1.0239258  c-0.1455078,0.7319336-0.328125,1.3994141-0.543457,1.9858398c-0.4702148,1.2836914-1.6113281,2.2299805-2.9770508,2.46875  c-1.9868164,0.3466797-5.8886719,0.8603516-9.7016602,0.4003906c-0.8100586-0.0957031-1.6025391,0.1533203-2.2275391,0.7070312  c-0.6450195,0.5717773-1.0146484,1.394043-1.0146484,2.2553711c0,0.8686523,0.3598633,1.6616211,1.0126953,2.2338867  c0.6489258,0.5678711,1.5126953,0.8286133,2.3696289,0.7138672c3.5292969-0.4692383,6.7851562-0.7387695,9.6772461-0.8012695  c1.3642578-0.0014648,2.53125,0.8217773,2.9355469,2.1162109c0.1469727,0.4716797,0.4272461,1.15625,0.9262695,1.7392578  c1.2714844,1.484375,3.0126953,3.5170898,9.6621094,3.5170898s8.390625-2.0327148,9.6621094-3.5170898  c0.4990234-0.5830078,0.7792969-1.2675781,0.9262695-1.7392578c0.4042969-1.2949219,1.5766602-2.1503906,2.9360352-2.1162109  c2.8916016,0.0625,6.1474609,0.3320312,9.6767578,0.8012695c0.859375,0.1137695,1.7216797-0.1459961,2.3696289-0.7138672  c0.652832-0.5722656,1.0126953-1.3652344,1.0126953-2.2338867c0-0.8613281-0.3696289-1.6835938-1.0146484-2.2553711  C73.6948242,24.4130859,72.9067383,24.1650391,72.0913086,24.2597656z"/></svg>